<?xml version="1.0" encoding="UTF-8"?>
<svg version="1.1" xmlns="http://www.w3.org/2000/svg" width="1000" height="500">
<path d="M0 0 C151.14 0 302.28 0 458 0 C458 41.91 458 83.82 458 127 C306.86 127 155.72 127 0 127 C0 85.09 0 43.18 0 0 Z " fill="#1A786A" transform="translate(0,0)"/>
<path d="M0 0 C1.32 0 2.64 0 4 0 C7.06242216 4.84060277 8.53411505 8.29290936 9 14 C9.15855469 13.40832031 9.31710938 12.81664062 9.48046875 12.20703125 C11.01843407 6.99834208 12.44896711 3.33002407 17 0 C19.3125 0.1875 19.3125 0.1875 21 1 C21.495 3.475 21.495 3.475 22 6 C22.86625 5.690625 22.86625 5.690625 23.75 5.375 C26.57518308 4.90413615 27.54550656 5.61934744 30 7 C31.33106622 7.34227417 32.66400079 7.67751743 34 8 C34.495 8.495 34.495 8.495 35 9 C34.75130306 15.21742345 32.74852645 18.29031292 29 23 C29.804375 22.505 30.60875 22.01 31.4375 21.5 C35.82002454 19.65472651 39.32315231 19.71938914 44 20 C44.495 22.475 44.495 22.475 45 25 C43.02 26.32 41.04 27.64 39 29 C39.94875 29.45375 40.8975 29.9075 41.875 30.375 C45 32 45 32 47 34 C47 34.99 47 35.98 47 37 C46.01 37.495 46.01 37.495 45 38 C45.350625 38.5775 45.70125 39.155 46.0625 39.75 C47 42 47 42 46 46 C42.37 46.33 38.74 46.66 35 47 C36.98 48.65 38.96 50.3 41 52 C40.67 53.32 40.34 54.64 40 56 C38.375 56.6875 38.375 56.6875 36 57 C32.75 55.5625 32.75 55.5625 30 54 C30.66 54.86625 31.32 55.7325 32 56.625 C34.12695385 60.21423463 34.38790972 61.92694798 34 66 C31.8125 66.8125 31.8125 66.8125 29 67 C26.3125 64.6875 26.3125 64.6875 24 62 C23.34 61.34 22.68 60.68 22 60 C22.495 61.5159375 22.495 61.5159375 23 63.0625 C24.07001321 66.75479911 24.15704155 70.15248207 24 74 C21.525 74.495 21.525 74.495 19 75 C18.34 73.68 17.68 72.36 17 71 C16.34 71 15.68 71 15 71 C15 72.32 15 73.64 15 75 C13.02 75.495 13.02 75.495 11 76 C9.68 73.36 8.36 70.72 7 68 C6.01 70.64 5.02 73.28 4 76 C2.02 76 0.04 76 -2 76 C-3.28317892 72.15046324 -3.06643637 69.05261865 -3 65 C-3.804375 65.804375 -4.60875 66.60875 -5.4375 67.4375 C-9 71 -9 71 -12.0625 71.0625 C-13.031875 71.041875 -14.00125 71.02125 -15 71 C-15.71484375 69.33203125 -15.71484375 69.33203125 -16 67 C-12.12452483 59.79007041 -6.40803528 53.99349558 0 49 C-0.99 48.34 -1.98 47.68 -3 47 C-3 46.34 -3 45.68 -3 45 C-3.72703125 45.433125 -4.4540625 45.86625 -5.203125 46.3125 C-12.61332807 50.41661247 -18.51769413 52.13769468 -27 51 C-28 50 -28 50 -28.0625 47.4375 C-28.041875 46.633125 -28.02125 45.82875 -28 45 C-27.01 44.505 -27.01 44.505 -26 44 C-26.804375 43.773125 -27.60875 43.54625 -28.4375 43.3125 C-29.283125 42.879375 -30.12875 42.44625 -31 42 C-31.8125 39.375 -31.8125 39.375 -32 37 C-28.83759418 34.89172945 -27.49342531 34.66182535 -23.8125 34.375 C-22.91144531 34.30023438 -22.01039062 34.22546875 -21.08203125 34.1484375 C-20.39496094 34.09945312 -19.70789062 34.05046875 -19 34 C-19.92232422 33.81824219 -19.92232422 33.81824219 -20.86328125 33.6328125 C-21.67152344 33.46523438 -22.47976562 33.29765625 -23.3125 33.125 C-24.11300781 32.96257813 -24.91351563 32.80015625 -25.73828125 32.6328125 C-28 32 -28 32 -31 30 C-31.1875 27.375 -31.1875 27.375 -31 25 C-29.35 24.67 -27.7 24.34 -26 24 C-26 22.68 -26 21.36 -26 20 C-22.33333333 20 -18.66666667 20 -15 20 C-15.845625 19.278125 -16.69125 18.55625 -17.5625 17.8125 C-20 15 -20 15 -19.8125 12.1875 C-19.544375 11.465625 -19.27625 10.74375 -19 10 C-14.48521602 10.53115106 -11.65333143 12.36620292 -8 15 C-8.50603992 12.83125748 -8.99983813 11.00032373 -10 9 C-10.039992 7.00039988 -10.04346799 4.99952758 -10 3 C-7.6875 2.3125 -7.6875 2.3125 -5 2 C-3.1875 3.4375 -3.1875 3.4375 -2 5 C-1.34 3.35 -0.68 1.7 0 0 Z " fill="#E7F3F5" transform="translate(59,26)"/>
<path d="M0 0 C0.99 0.66 1.98 1.32 3 2 C4.74488531 2.16948727 6.49751946 2.26599563 8.25 2.3125 C14.0133796 2.73234885 16.71513299 4.1709699 21 8 C23.40355927 11.6053389 23.75085268 14.79361025 23 19 C21.48046875 21.25390625 21.48046875 21.25390625 20 23 C20.56847656 23.3403125 21.13695312 23.680625 21.72265625 24.03125 C27.34531603 27.56066582 32.41045663 31.3109124 36 37 C36.4375 40.5 36.4375 40.5 36 43 C33.8125 43.8125 33.8125 43.8125 31 44 C28.3125 41.6875 28.3125 41.6875 26 39 C25.34 38.34 24.68 37.68 24 37 C24.495 38.5159375 24.495 38.5159375 25 40.0625 C26.07001321 43.75479911 26.15704155 47.15248207 26 51 C23.525 51.495 23.525 51.495 21 52 C20.34 50.68 19.68 49.36 19 48 C18.34 48 17.68 48 17 48 C17 49.32 17 50.64 17 52 C15.02 52.495 15.02 52.495 13 53 C11.68 50.36 10.36 47.72 9 45 C8.01 47.64 7.02 50.28 6 53 C4.02 53 2.04 53 0 53 C-1.28317892 49.15046324 -1.06643637 46.05261865 -1 42 C-1.804375 42.804375 -2.60875 43.60875 -3.4375 44.4375 C-7 48 -7 48 -10.0625 48.0625 C-11.031875 48.041875 -12.00125 48.02125 -13 48 C-13.71484375 46.33203125 -13.71484375 46.33203125 -14 44 C-10.12452483 36.79007041 -4.40803528 30.99349558 2 26 C1.01 25.34 0.02 24.68 -1 24 C-1.66666667 22.66666667 -2.33333333 21.33333333 -3 20 C-3.99 19.34 -4.98 18.68 -6 18 C-5.34 16.68 -4.68 15.36 -4 14 C-5.32 13.34 -6.64 12.68 -8 12 C-6.68 12 -5.36 12 -4 12 C-4.33 11.01 -4.66 10.02 -5 9 C-4.01 9 -3.02 9 -2 9 C-0.14223235 5.86501708 0.20140476 3.62528568 0 0 Z " fill="#EEF5F5" transform="translate(57,49)"/>
<path d="M0 0 C5.75 0.75 5.75 0.75 8 3 C10.52629973 3.46482941 10.52629973 3.46482941 13.375 3.625 C14.33148438 3.69976562 15.28796875 3.77453125 16.2734375 3.8515625 C18.51285468 3.97347919 20.75726663 4 23 4 C23 3.34 23 2.68 23 2 C25.875 2.3125 25.875 2.3125 29 3 C31.39989427 6.5998414 31.64136132 7.75098128 31 12 C29.3431468 14.9855634 27.54025203 17.70445115 25 20 C23.68 20 22.36 20 21 20 C24.91313527 21.23009719 27.91045794 20.670306 31.87890625 19.9609375 C34 20 34 20 35.796875 21.30859375 C37 23 37 23 36.6875 25.6875 C36.3471875 26.8321875 36.3471875 26.8321875 36 28 C30.91578414 28.78893005 27.10022449 28.9864331 22 28 C22.04640625 29.09699219 22.0928125 30.19398437 22.140625 31.32421875 C22.1781579 32.7786185 22.21455643 34.23304783 22.25 35.6875 C22.30027344 36.7693457 22.30027344 36.7693457 22.3515625 37.87304688 C22.42478439 41.88194518 22.28590487 43.57169678 19.984375 47.01953125 C19.00210938 47.99986328 19.00210938 47.99986328 18 49 C15 48 15 48 13 45 C13 44.01 13 43.02 13 42 C12.4225 42.350625 11.845 42.70125 11.25 43.0625 C9 44 9 44 6.9375 43.875 C4.44623634 42.74991319 3.46274809 41.26725953 2 39 C1.67 41.31 1.34 43.62 1 46 C-1.475 46.495 -1.475 46.495 -4 47 C-5.86751623 44.87423295 -6.93888764 43.56254558 -7.2487793 40.70996094 C-7.19117432 39.89301758 -7.13356934 39.07607422 -7.07421875 38.234375 C-7.01943359 37.34492187 -6.96464844 36.45546875 -6.90820312 35.5390625 C-6.83537109 34.61867187 -6.76253906 33.69828125 -6.6875 32.75 C-6.62626953 31.81414062 -6.56503906 30.87828125 -6.50195312 29.9140625 C-6.34899942 27.6079912 -6.1812095 25.30399467 -6 23 C-6.78375 23.66 -7.5675 24.32 -8.375 25 C-11 27 -11 27 -13 27 C-12.49033813 21.75776367 -9.75936452 17.88004083 -7.0625 13.5 C-3.03849631 6.99848942 -3.03849631 6.99848942 0 0 Z " fill="#EEF5F4" transform="translate(149,41)"/>
<path d="M0 0 C1.98 0.66 3.96 1.32 6 2 C6.33 3.98 6.66 5.96 7 8 C8.65 7.67 10.3 7.34 12 7 C12.33 8.65 12.66 10.3 13 12 C14.65 12 16.3 12 18 12 C18 11.34 18 10.68 18 10 C16.68 9.67 15.36 9.34 14 9 C14 8.01 14 7.02 14 6 C15.32 6 16.64 6 18 6 C18 4.02 18 2.04 18 0 C19.65 0 21.3 0 23 0 C23.495 1.98 23.495 1.98 24 4 C24.928125 3.938125 25.85625 3.87625 26.8125 3.8125 C30 4 30 4 31.875 5.375 C33 7 33 7 33 9 C34.32 9.33 35.64 9.66 37 10 C37 11.32 37 12.64 37 14 C35.906875 14.04125 34.81375 14.0825 33.6875 14.125 C29.80641036 14.61803169 29.80641036 14.61803169 28 17.8125 C26.87224402 20.8013773 26.87224402 20.8013773 27.0625 23.25 C28.29108112 25.54335142 29.61653647 26.07736896 32 27 C32 27.99 32 28.98 32 30 C30.02253397 30.73080266 28.01927511 31.39421747 26 32 C25.34 31.67 24.68 31.34 24 31 C23.67 31.99 23.34 32.98 23 34 C26.45903157 35.72951578 30.43101162 35.40535763 34.25 35.62109375 C37 36 37 36 39 38 C38.071875 38.598125 37.14375 39.19625 36.1875 39.8125 C33.09224022 41.70324602 33.09224022 41.70324602 31.625 43.75 C29.35784931 45.49396207 27.25872189 45.58575045 24.45703125 45.4921875 C17.73859392 44.14636381 11.32321532 40.22054929 6 36 C5.731875 36.639375 5.46375 37.27875 5.1875 37.9375 C4 40 4 40 1 41 C-0.20882096 43.00016466 -0.20882096 43.00016466 -1 45 C-1.99 45 -2.98 45 -4 45 C-6.13604308 41.79593538 -6.24208908 41.00399253 -6.1953125 37.33203125 C-6.18886719 36.43935547 -6.18242187 35.54667969 -6.17578125 34.62695312 C-6.15902344 33.69818359 -6.14226562 32.76941406 -6.125 31.8125 C-6.11597656 30.87212891 -6.10695312 29.93175781 -6.09765625 28.96289062 C-6.07409056 26.64167032 -6.04119116 24.32096356 -6 22 C-6.78375 22.515625 -7.5675 23.03125 -8.375 23.5625 C-9.24125 24.036875 -10.1075 24.51125 -11 25 C-11.66 24.67 -12.32 24.34 -13 24 C-12.64172119 23.41508789 -12.28344238 22.83017578 -11.91430664 22.22753906 C-10.29162654 19.57162181 -8.67699813 16.91089817 -7.0625 14.25 C-6.49853516 13.32960938 -5.93457031 12.40921875 -5.35351562 11.4609375 C-4.81533203 10.57148437 -4.27714844 9.68203125 -3.72265625 8.765625 C-3.22515869 7.94868164 -2.72766113 7.13173828 -2.21508789 6.29003906 C-1.08678521 4.16356144 -0.45566321 2.35150545 0 0 Z " fill="#EDF4F3" transform="translate(206,43)"/>
<path d="M0 0 C2.9375 0.75 2.9375 0.75 6 2 C7.4389687 4.87793741 6.96203259 7.00700971 6 10 C8.97 10.495 8.97 10.495 12 11 C12.33 12.32 12.66 13.64 13 15 C14.98 14.34 16.96 13.68 19 13 C18.34 9.04 17.68 5.08 17 1 C18.27875 0.938125 19.5575 0.87625 20.875 0.8125 C21.95394531 0.76029297 21.95394531 0.76029297 23.0546875 0.70703125 C23.69664062 0.80371094 24.33859375 0.90039062 25 1 C27 4 27 4 26.8125 5.875 C25.82544914 8.45651762 24.48547668 10.67490606 23 13 C23.515625 12.835 24.03125 12.67 24.5625 12.5 C27.73363876 11.84951 30.77218334 11.9379266 34 12 C34.66 13.65 35.32 15.3 36 17 C34.35 17.33 32.7 17.66 31 18 C31.495 18.99 31.495 18.99 32 20 C32.41527201 24.67181016 31.69993991 27.17508513 29 31 C31.97 31 34.94 31 38 31 C38 31.99 38 32.98 38 34 C38.66 34 39.32 34 40 34 C40 35.65 40 37.3 40 39 C35.77590584 39.75095007 31.85652511 40.02720805 27.5625 39.9375 C24.06262074 39.88962203 21.11009564 40.08383137 17.75 41.0625 C13.52802129 42.11799468 11.18635489 41.87215727 7 41 C6.4121875 41.99 6.4121875 41.99 5.8125 43 C4 45 4 45 1.3125 45.25 C0.549375 45.1675 -0.21375 45.085 -1 45 C-4.125 38.375 -4.125 38.375 -3 35 C-2.01 35.66 -1.02 36.32 0 37 C0 34.69 0 32.38 0 30 C-0.556875 30.515625 -1.11375 31.03125 -1.6875 31.5625 C-4 33 -4 33 -6.6875 32.75 C-9 32 -9 32 -10 31 C-10.04063832 29.33382885 -10.042721 27.66611905 -10 26 C-3.375 23 -3.375 23 0 23 C-0.33 21.68 -0.66 20.36 -1 19 C-1.78375 18.87625 -2.5675 18.7525 -3.375 18.625 C-6 18 -6 18 -8 16 C-7.625 13.875 -7.625 13.875 -7 12 C-5.02 12 -3.04 12 -1 12 C-1.01160156 11.21753906 -1.02320313 10.43507813 -1.03515625 9.62890625 C-1.04417969 8.61699219 -1.05320312 7.60507812 -1.0625 6.5625 C-1.07410156 5.55316406 -1.08570313 4.54382812 -1.09765625 3.50390625 C-1 1 -1 1 0 0 Z " fill="#ECF4F3" transform="translate(379,43)"/>
<path d="M0 0 C2.97 0.495 2.97 0.495 6 1 C6.33 3.97 6.66 6.94 7 10 C9.475 10.495 9.475 10.495 12 11 C12.33 12.32 12.66 13.64 13 15 C14.01320313 14.7834375 15.02640625 14.566875 16.0703125 14.34375 C17.42181004 14.06218801 18.77337625 13.7809555 20.125 13.5 C20.79015625 13.35691406 21.4553125 13.21382812 22.140625 13.06640625 C32.05175781 11.02587891 32.05175781 11.02587891 36 13 C36 14.65 36 16.3 36 18 C34.35 18.33 32.7 18.66 31 19 C31.66 19.66 32.32 20.32 33 21 C33.57258316 25.23711541 32.37600959 27.53498602 30 31 C32.64 31 35.28 31 38 31 C38.495 32.485 38.495 32.485 39 34 C39.66 34 40.32 34 41 34 C40.125 38.875 40.125 38.875 39 40 C35.53155632 40.02656357 32.07609518 39.97166909 28.609375 39.87304688 C23.6840201 39.80011043 19.75208018 40.5516916 15 42 C11.0625 41.625 11.0625 41.625 8 41 C7.4121875 41.99 7.4121875 41.99 6.8125 43 C5 45 5 45 2.4375 45.375 C0 45 0 45 -2 43 C-2.8563027 40.36766208 -3.38929927 37.70453182 -4 35 C-3.01 35.33 -2.02 35.66 -1 36 C-0.67 34.35 -0.34 32.7 0 31 C-0.99 31.66 -1.98 32.32 -3 33 C-6.32240324 32.6758631 -7.60776303 32.39223697 -10 30 C-9.91015625 27.984375 -9.91015625 27.984375 -9 26 C-6.93359375 24.953125 -6.93359375 24.953125 -4.4375 24.25 C-3.19806641 23.88648438 -3.19806641 23.88648438 -1.93359375 23.515625 C-1.29550781 23.34546875 -0.65742188 23.1753125 0 23 C0 21.68 0 20.36 0 19 C-0.78375 18.87625 -1.5675 18.7525 -2.375 18.625 C-5 18 -5 18 -7 16 C-6.625 13.875 -6.625 13.875 -6 12 C-4.02 11.67 -2.04 11.34 0 11 C0 7.37 0 3.74 0 0 Z " fill="#EAF2F1" transform="translate(320,43)"/>
<path d="M0 0 C0.33 0.99 0.66 1.98 1 3 C1.66 3 2.32 3 3 3 C4.46331051 9.07767618 3.21358337 12.27251789 0.14453125 17.5625 C-3.6603844 21.88721286 -8.45567972 22.50187747 -14 23 C-15.99977365 23.03008919 -18.00037413 23.03868324 -20 23 C-20 26.3 -20 29.6 -20 33 C-12.41633857 34.95707392 -3.95648778 34.93192788 3 31 C5.13082602 27.99795634 5.13082602 27.99795634 6 25 C6.66 25.33 7.32 25.66 8 26 C8.70491267 28.32206525 9.37212429 30.65593068 10 33 C10.33 33.33 10.66 33.66 11 34 C11.375 36.375 11.375 36.375 11 39 C5.28145579 43.44775661 -0.82006186 43.23673537 -7.75 43.3125 C-8.61882812 43.34150391 -9.48765625 43.37050781 -10.3828125 43.40039062 C-16.3314624 43.45844802 -21.14282732 42.62173686 -26 39 C-28.53925434 36.49932398 -28.97910833 35.20804806 -29.34057617 31.60839844 C-29.32486572 30.2887207 -29.30915527 28.96904297 -29.29296875 27.609375 C-29.28872391 26.90476135 -29.28447906 26.20014771 -29.28010559 25.47418213 C-29.26336538 23.23239288 -29.22572404 20.99151569 -29.1875 18.75 C-29.17244704 17.22657552 -29.1587597 15.70313689 -29.14648438 14.1796875 C-29.11347791 10.45283059 -29.06172854 6.72650437 -29 3 C-27 2 -27 2 -23.6875 2.625 C-18.56054336 3.38420199 -14.08789463 2.02494008 -9.1484375 0.69140625 C-5.99439016 -0.00123194 -3.21745878 -0.12077548 0 0 Z " fill="#F0F6F5" transform="translate(287,44)"/>
<path d="M0 0 C0.99 0.66 1.98 1.32 3 2 C4.74488531 2.16948727 6.49751946 2.26599563 8.25 2.3125 C14.0133796 2.73234885 16.71513299 4.1709699 21 8 C23.46302097 11.69453145 23.8197253 14.71220612 23 19 C21.81650114 20.98316025 20.5355837 22.6404865 18.99609375 24.359375 C17.75721767 26.00177163 17.75721767 26.00177163 18.34765625 28.203125 C18.56292969 28.79609375 18.77820313 29.3890625 19 30 C18.34 29.67 17.68 29.34 17 29 C12.85496339 28.75212983 12.85496339 28.75212983 9 30 C4.96399381 28.80010627 2.0868571 26.83657138 -1 24 C-1.69748583 22.68252676 -2.36959957 21.35085807 -3 20 C-3.99 19.34 -4.98 18.68 -6 18 C-5.34 16.68 -4.68 15.36 -4 14 C-5.32 13.34 -6.64 12.68 -8 12 C-6.68 12 -5.36 12 -4 12 C-4.33 11.01 -4.66 10.02 -5 9 C-4.01 9 -3.02 9 -2 9 C-0.14223235 5.86501708 0.20140476 3.62528568 0 0 Z " fill="#F89315" transform="translate(57,49)"/>
<path d="M0 0 C2.39021108 0.8675581 4.74845648 1.82125759 7.109375 2.765625 C7.109375 7.715625 7.109375 12.665625 7.109375 17.765625 C6.449375 18.095625 5.789375 18.425625 5.109375 18.765625 C4.37861852 21.0796872 3.70799242 23.41391369 3.109375 25.765625 C1.129375 25.765625 -0.850625 25.765625 -2.890625 25.765625 C-4.17380392 21.91608824 -3.95706137 18.81824365 -3.890625 14.765625 C-4.695 15.57 -5.499375 16.374375 -6.328125 17.203125 C-9.890625 20.765625 -9.890625 20.765625 -12.953125 20.828125 C-13.9225 20.8075 -14.891875 20.786875 -15.890625 20.765625 C-16.609375 19.1015625 -16.609375 19.1015625 -16.890625 16.765625 C-14.21391944 11.84346089 -6.55025696 -0.81201533 0 0 Z " fill="#E6F1F2" transform="translate(59.890625,76.234375)"/>
<path d="M0 0 C2.38564077 0.57584432 4.66682784 1.22227595 7 2 C7.70125 2.165 8.4025 2.33 9.125 2.5 C11 3 11 3 12 4 C11.75130306 10.21742345 9.74852645 13.29031292 6 18 C7.32 17.67 8.64 17.34 10 17 C7.68722739 20.46915891 6.75057797 20.55091306 3 22 C2.01 22.7425 1.02 23.485 0 24.25 C-3 26 -3 26 -5.6875 25.375 C-7.49078001 24.30277945 -9.25438393 23.16374405 -11 22 C-13.27912938 21.54605448 -13.27912938 21.54605448 -15.6875 21.375 C-16.49574219 21.30023438 -17.30398437 21.22546875 -18.13671875 21.1484375 C-18.75160156 21.09945312 -19.36648437 21.05046875 -20 21 C-19.67 20.34 -19.34 19.68 -19 19 C-18.01 19.33 -17.02 19.66 -16 20 C-16 19.01 -16 18.02 -16 17 C-14.02 17.66 -12.04 18.32 -10 19 C-7.99443476 15.05802694 -6.02225901 11.14222199 -4.3125 7.0625 C-3 4 -3 4 -2 3 C-1.34 2.01 -0.68 1.02 0 0 Z " fill="#D2E9F4" transform="translate(82,31)"/>
<path d="M0 0 C-0.52026366 4.38507941 -1.09863876 8.67498095 -2 13 C-3.54001707 13.34087334 -5.08212406 13.67230953 -6.625 14 C-7.48351562 14.185625 -8.34203125 14.37125 -9.2265625 14.5625 C-12.19269005 15.03039618 -15.00207333 15.07033259 -18 15 C-18.08082094 13.04233719 -18.13910778 11.08373272 -18.1875 9.125 C-18.22230469 8.03445312 -18.25710938 6.94390625 -18.29296875 5.8203125 C-18.19628906 4.88960938 -18.09960938 3.95890625 -18 3 C-14.32561113 0.55040742 -12.33163807 0.92264932 -8 1 C-5.07175348 0.02391783 -3.04386724 -0.08226668 0 0 Z " fill="#3E8D81" transform="translate(346,63)"/>
<path d="M0 0 C0.33 0.99 0.66 1.98 1 3 C4.3 2.67 7.6 2.34 11 2 C11 2.66 11 3.32 11 4 C12.69769531 4.05607422 12.69769531 4.05607422 14.4296875 4.11328125 C15.91149205 4.17893082 17.39326139 4.24537851 18.875 4.3125 C19.62136719 4.33505859 20.36773437 4.35761719 21.13671875 4.38085938 C23.099604 4.47811945 25.05328322 4.73042294 27 5 C27.99 6.485 27.99 6.485 29 8 C20.96184981 12.78868522 14.43420732 15.26536906 5 14 C4 13 4 13 3.9375 10.4375 C3.958125 9.633125 3.97875 8.82875 4 8 C4.66 7.67 5.32 7.34 6 7 C5.195625 6.773125 4.39125 6.54625 3.5625 6.3125 C2.716875 5.879375 1.87125 5.44625 1 5 C0.1875 2.375 0.1875 2.375 0 0 Z " fill="#EEF5F3" transform="translate(27,63)"/>
<path d="M0 0 C1.21236328 0.04060547 1.21236328 0.04060547 2.44921875 0.08203125 C3.06410156 0.11683594 3.67898437 0.15164062 4.3125 0.1875 C4.6425 1.8375 4.9725 3.4875 5.3125 5.1875 C-2.35382923 10.83637417 -10.20554924 13.57576124 -19.6875 14.1875 C-19.6875 10.1875 -19.6875 10.1875 -18.33203125 8.7734375 C-17.72746094 8.37382813 -17.12289062 7.97421875 -16.5 7.5625 C-15.86191406 7.1396875 -15.22382812 6.716875 -14.56640625 6.28125 C-12.35684186 4.99501709 -10.06691486 4.112828 -7.6875 3.1875 C-7.24277344 2.67832031 -6.79804687 2.16914062 -6.33984375 1.64453125 C-4.14410232 -0.29166627 -2.87864163 -0.12515833 0 0 Z " fill="#F4FAF9" transform="translate(98.6875,45.8125)"/>
<path d="M0 0 C3 1 3 1 4.1796875 2.734375 C5.13874367 5.38319681 5.19893014 7.44065467 5.125 10.25 C5.10695313 11.14203125 5.08890625 12.0340625 5.0703125 12.953125 C5.03550781 13.96632813 5.03550781 13.96632813 5 15 C6.65 15.33 8.3 15.66 10 16 C10.99 13.03 11.98 10.06 13 7 C12.34 7 11.68 7 11 7 C11 7.66 11 8.32 11 9 C10.01 8.67 9.02 8.34 8 8 C8.33 7.01 8.66 6.02 9 5 C12.465 4.505 12.465 4.505 16 4 C16.23509196 8.81938524 15.45184478 12.46298506 14 17 C12.08404518 17.33740085 10.16720278 17.66976412 8.25 18 C7.18265625 18.185625 6.1153125 18.37125 5.015625 18.5625 C2 19 2 19 -2 19 C-2.05429959 17.25034642 -2.09292823 15.50020213 -2.125 13.75 C-2.15980469 12.28820312 -2.15980469 12.28820312 -2.1953125 10.796875 C-1.99862781 7.9803502 -1.44568916 6.39050964 0 4 C-0.66 3.67 -1.32 3.34 -2 3 C-2 2.34 -2 1.68 -2 1 C-1.34 0.67 -0.68 0.34 0 0 Z " fill="#277F72" transform="translate(388,59)"/>
<path d="M0 0 C0.99 0.33 1.98 0.66 3 1 C3 1.66 3 2.32 3 3 C8.445 2.505 8.445 2.505 14 2 C14 5.3 14 8.6 14 12 C13.01 12 12.02 12 11 12 C10.34 13.32 9.68 14.64 9 16 C6.11424181 15.60196439 5.17810487 15.20990931 3.25 12.9375 C2.8375 12.298125 2.425 11.65875 2 11 C1.67 13.31 1.34 15.62 1 18 C0.67 18 0.34 18 0 18 C0 12.06 0 6.12 0 0 Z " fill="#227C6F" transform="translate(149,69)"/>
<path d="M0 0 C3.23773504 0.55823018 5.022862 1.32563066 7 4 C7.34057617 6.0847168 7.34057617 6.0847168 7.29296875 8.44921875 C7.28330078 9.29677734 7.27363281 10.14433594 7.26367188 11.01757812 C7.23853516 11.89865234 7.21339844 12.77972656 7.1875 13.6875 C7.17396484 14.58017578 7.16042969 15.47285156 7.14648438 16.39257812 C7.11114079 18.59566166 7.06180493 20.79752582 7 23 C5.68 23.33 4.36 23.66 3 24 C-0.72943753 19.27213037 -0.35415147 14.9177468 -0.1875 9.1875 C-0.17396484 8.30384766 -0.16042969 7.42019531 -0.14648438 6.50976562 C-0.11129217 4.33957977 -0.05748985 2.16970967 0 0 Z " fill="#F5F9FA" transform="translate(67,78)"/>
<path d="M0 0 C0 0.66 0 1.32 0 2 C2.97 2.495 2.97 2.495 6 3 C4.68 3.33 3.36 3.66 2 4 C2 4.66 2 5.32 2 6 C3.65 6 5.3 6 7 6 C6.01 7.65 5.02 9.3 4 11 C-1.1283268 10.46579929 -6.58095055 9.84543672 -11 7 C-12 3.8125 -12 3.8125 -12 1 C-10.56496445 0.63597631 -9.12683494 0.28413409 -7.6875 -0.0625 C-6.88699219 -0.25972656 -6.08648437 -0.45695312 -5.26171875 -0.66015625 C-3 -1 -3 -1 0 0 Z " fill="#F6FAFA" transform="translate(92,60)"/>
<path d="M0 0 C7.47262695 -0.84368369 10.91600357 0.70663133 16.8359375 5.2734375 C17.55007812 5.84320313 18.26421875 6.41296875 19 7 C19.99 7.66 20.98 8.32 22 9 C22 9.99 22 10.98 22 12 C14.64512439 11.06316223 6.94836452 9.73666064 1 5 C0.2265625 2.33203125 0.2265625 2.33203125 0 0 Z " fill="#F0F9F9" transform="translate(33,46)"/>
<path d="M0 0 C1 2 1 2 0.3125 4.5 C-1.15567038 7.29651501 -2.09303901 7.93411431 -5 9 C-3.35 9.99 -1.7 10.98 0 12 C-0.99 12.99 -1.98 13.98 -3 15 C-5.9719385 13.87548273 -8.33440687 12.77706209 -11 11 C-13.27912938 10.54605448 -13.27912938 10.54605448 -15.6875 10.375 C-16.49574219 10.30023438 -17.30398437 10.22546875 -18.13671875 10.1484375 C-18.75160156 10.09945312 -19.36648437 10.05046875 -20 10 C-19.67 9.34 -19.34 8.68 -19 8 C-18.01 8.33 -17.02 8.66 -16 9 C-16 8.01 -16 7.02 -16 6 C-14.02 6.66 -12.04 7.32 -10 8 C-9.54625 7.175 -9.0925 6.35 -8.625 5.5 C-8.08875 4.675 -7.5525 3.85 -7 3 C-6.34 3 -5.68 3 -5 3 C-4.67 2.34 -4.34 1.68 -4 1 C-4 1.99 -4 2.98 -4 4 C-3.34 4 -2.68 4 -2 4 C-1.34 2.68 -0.68 1.36 0 0 Z " fill="#DFF1F6" transform="translate(82,42)"/>
<path d="M0 0 C0.33 0.99 0.66 1.98 1 3 C-0.32 3 -1.64 3 -3 3 C-3 3.99 -3 4.98 -3 6 C-6 8 -6 8 -10 8 C-10 7.34 -10 6.68 -10 6 C-11.29735507 4.95374591 -12.63266972 3.95298777 -14 3 C-14.33 2.67 -14.66 2.34 -15 2 C-16.52519276 2.08937803 -18.04681929 2.24537146 -19.5625 2.4375 C-20.38878906 2.53933594 -21.21507813 2.64117187 -22.06640625 2.74609375 C-22.70449219 2.82988281 -23.34257813 2.91367187 -24 3 C-23.67 2.34 -23.34 1.68 -23 1 C-21.109375 0.4375 -21.109375 0.4375 -18.75 0 C-15.98371238 -0.53498959 -14.0119059 -0.9937494 -11.5 -2.3125 C-7.46471026 -3.42220468 -3.62789258 -1.95636356 0 0 Z " fill="#E1EFF3" transform="translate(104,58)"/>
<path d="M0 0 C0.99 0.66 1.98 1.32 3 2 C5.73872955 2.45772063 5.73872955 2.45772063 8.6875 2.625 C9.68136719 2.69976562 10.67523438 2.77453125 11.69921875 2.8515625 C12.45847656 2.90054688 13.21773437 2.94953125 14 3 C11.70536997 4.22961187 10.25608269 4.98652196 7.625 5.125 C3.3075931 6.56413563 1.08250403 10.06473439 -1 14 C-0.93420351 17.39161102 -0.93420351 17.39161102 1 20 C1.04063832 21.66617115 1.042721 23.33388095 1 25 C-1 24 -1 24 -1.9375 22.0625 C-2.95345922 19.68028507 -2.95345922 19.68028507 -6 18 C-5.34 16.68 -4.68 15.36 -4 14 C-5.32 13.34 -6.64 12.68 -8 12 C-6.68 12 -5.36 12 -4 12 C-4.33 11.01 -4.66 10.02 -5 9 C-4.01 9 -3.02 9 -2 9 C-0.14223235 5.86501708 0.20140476 3.62528568 0 0 Z " fill="#D5B150" transform="translate(57,49)"/>
<path d="M0 0 C1.90318884 2.85478326 2.4619099 4.41941308 3.125 7.6875 C3.29257813 8.49574219 3.46015625 9.30398437 3.6328125 10.13671875 C3.75398437 10.75160156 3.87515625 11.36648437 4 12 C5.32 11.67 6.64 11.34 8 11 C8 11.66 8 12.32 8 13 C6.58461283 13.33872513 5.16762037 13.67074624 3.75 14 C2.96109375 14.185625 2.1721875 14.37125 1.359375 14.5625 C-1 15 -1 15 -5 15 C-5.76681614 7.33183857 -5.76681614 7.33183857 -3.88671875 4.06640625 C-2.5 2.4375 -2.5 2.4375 0 0 Z " fill="#257E71" transform="translate(155,51)"/>
<path d="M0 0 C2.78978984 0.1946365 4.27456111 0.85622337 6.6875 2.1875 C7.3475 2.1875 8.0075 2.1875 8.6875 2.1875 C8.8828125 8.2421875 8.8828125 8.2421875 8.6875 10.1875 C8.0275 10.8475 7.3675 11.5075 6.6875 12.1875 C4.23828125 12.12890625 4.23828125 12.12890625 1.6875 11.1875 C0.10546875 8.90234375 0.10546875 8.90234375 -1.125 6.125 C-1.54394531 5.20589844 -1.96289062 4.28679687 -2.39453125 3.33984375 C-2.69746094 2.62957031 -3.00039062 1.91929688 -3.3125 1.1875 C-2.3125 0.1875 -2.3125 0.1875 0 0 Z " fill="#E5F0EE" transform="translate(175.3125,71.8125)"/>
<path d="M0 0 C0.03738281 0.68707031 0.07476562 1.37414062 0.11328125 2.08203125 C0.17902344 2.98308594 0.24476563 3.88414063 0.3125 4.8125 C0.39951172 6.15248047 0.39951172 6.15248047 0.48828125 7.51953125 C0.84438525 10.39404181 0.84438525 10.39404181 4 13 C0.7 13.33 -2.6 13.66 -6 14 C-6.08082094 12.04233719 -6.13910778 10.08373272 -6.1875 8.125 C-6.22230469 7.03445312 -6.25710938 5.94390625 -6.29296875 4.8203125 C-6.19628906 3.88960938 -6.09960938 2.95890625 -6 2 C-3 0 -3 0 0 0 Z " fill="#207B6E" transform="translate(334,64)"/>
<path d="M0 0 C0.33 0.99 0.66 1.98 1 3 C0.01 3.495 0.01 3.495 -1 4 C-0.649375 4.5775 -0.29875 5.155 0.0625 5.75 C1.16577711 8.39786506 0.80156509 9.33185326 0 12 C-2.0600371 12.25034126 -4.12327466 12.47443346 -6.1875 12.6875 C-7.91033203 12.87892578 -7.91033203 12.87892578 -9.66796875 13.07421875 C-13.38478183 12.99142924 -15.04010104 12.16836289 -18 10 C-14.79937313 8.39968656 -12.27728194 9.96826309 -9 11 C-8.731875 10.030625 -8.46375 9.06125 -8.1875 8.0625 C-7.5996875 6.5465625 -7.5996875 6.5465625 -7 5 C-6.01 4.67 -5.02 4.34 -4 4 C-4 3.01 -4 2.02 -4 1 C-2.68 0.67 -1.36 0.34 0 0 Z " fill="#D4E9EF" transform="translate(105,60)"/>
<path d="M0 0 C1.27875 -0.061875 2.5575 -0.12375 3.875 -0.1875 C4.95394531 -0.23970703 4.95394531 -0.23970703 6.0546875 -0.29296875 C6.69664062 -0.19628906 7.33859375 -0.09960938 8 0 C10 3 10 3 9.8125 4.875 C8.82544914 7.45651762 7.48547668 9.67490606 6 12 C6.66 12.33 7.32 12.66 8 13 C7.01 13.33 6.02 13.66 5 14 C5 13.34 5 12.68 5 12 C4.01 12 3.02 12 2 12 C1.34 8.04 0.68 4.08 0 0 Z " fill="#EDF4F3" transform="translate(396,44)"/>
<path d="M0 0 C6.75 -0.125 6.75 -0.125 9 1 C9.35475877 4.81365679 9.2619932 6.58442458 7.1875 9.875 C5 12 5 12 2 12 C0.86235649 7.73383684 0 4.43513689 0 0 Z " fill="#E2EEEC" transform="translate(338,44)"/>
<path d="M0 0 C4.98287932 0.39081406 8.65022018 1.55987961 13 4 C12.01 5.485 12.01 5.485 11 7 C10.34 7 9.68 7 9 7 C9 7.66 9 8.32 9 9 C2.375 8.25 2.375 8.25 -1 6 C-1.25 3.4375 -1.25 3.4375 -1 1 C-0.67 0.67 -0.34 0.34 0 0 Z " fill="#E0EDF2" transform="translate(29,50)"/>
<path d="M0 0 C2.33944736 0.28730055 4.6739143 0.61936779 7 1 C6.34 3.97 5.68 6.94 5 10 C1 11 1 11 -0.8125 10 C-2.66503248 6.8799453 -1.76096633 4.42434846 -1 1 C-0.67 0.67 -0.34 0.34 0 0 Z " fill="#E1EDEB" transform="translate(154,74)"/>
<path d="M0 0 C2.2109885 0.42793326 3.98119242 0.99059621 6 2 C6 1.34 6 0.68 6 0 C6.66 0 7.32 0 8 0 C7.34 2.97 6.68 5.94 6 9 C4.68 9.33 3.36 9.66 2 10 C1.01 9.34 0.02 8.68 -1 8 C-1.25 4.4375 -1.25 4.4375 -1 1 C-0.67 0.67 -0.34 0.34 0 0 Z " fill="#E3EEED" transform="translate(393,66)"/>
<path d="M0 0 C0.99 0 1.98 0 3 0 C3 0.66 3 1.32 3 2 C4.32 1.34 5.64 0.68 7 0 C6.67 2.97 6.34 5.94 6 9 C3.625 9.625 3.625 9.625 1 10 C-1 8 -1 8 -1.1875 4.4375 C-1 1 -1 1 0 0 Z " fill="#EAF2F1" transform="translate(335,66)"/>
<path d="M0 0 C2.97 0 5.94 0 9 0 C9.33 1.65 9.66 3.3 10 5 C8.02 5.99 8.02 5.99 6 7 C6 6.34 6 5.68 6 5 C5.401875 5.350625 4.80375 5.70125 4.1875 6.0625 C2 7 2 7 -1 6 C-0.67 4.02 -0.34 2.04 0 0 Z " fill="#E1F2F5" transform="translate(94,46)"/>
<path d="M0 0 C0.99 0 1.98 0 3 0 C2.43697042 3.94120709 1.3208055 6.7508723 -1 10 C-1.66 10 -2.32 10 -3 10 C-3.66 11.65 -4.32 13.3 -5 15 C-5.66 15 -6.32 15 -7 15 C-6.72414063 14.45859375 -6.44828125 13.9171875 -6.1640625 13.359375 C-4.84259131 10.68095688 -3.60599624 7.97114959 -2.375 5.25 C-1.92898437 4.26515625 -1.48296875 3.2803125 -1.0234375 2.265625 C-0.68570313 1.51796875 -0.34796875 0.7703125 0 0 Z M-8 15 C-7.67 15.99 -7.34 16.98 -7 18 C-6.34 18.33 -5.68 18.66 -5 19 C-8 21 -8 21 -10.1875 20.625 C-10.785625 20.41875 -11.38375 20.2125 -12 20 C-12 19.34 -12 18.68 -12 18 C-10 16.375 -10 16.375 -8 15 Z " fill="#DEF1F8" transform="translate(89,33)"/>
<path d="M0 0 C0.99 0.33 1.98 0.66 3 1 C3 5.29 3 9.58 3 14 C1.35 14 -0.3 14 -2 14 C-2.05389087 12.04196493 -2.09274217 10.08351091 -2.125 8.125 C-2.14820313 7.03445312 -2.17140625 5.94390625 -2.1953125 4.8203125 C-2 2 -2 2 0 0 Z " fill="#2F8477" transform="translate(208,56)"/>
<path d="M0 0 C0.33 0.99 0.66 1.98 1 3 C4.3 2.67 7.6 2.34 11 2 C11 2.66 11 3.32 11 4 C13.64 4 16.28 4 19 4 C19 4.33 19 4.66 19 5 C6.33029613 7.66514806 6.33029613 7.66514806 1 5 C0.67 3.35 0.34 1.7 0 0 Z " fill="#DCEAF3" transform="translate(27,63)"/>
<path d="M0 0 C2.4375 0.8125 2.4375 0.8125 5 2 C5.9584336 4.87530081 6.06656387 6.29049931 5.87890625 9.23046875 C5.83056641 10.03291016 5.78222656 10.83535156 5.73242188 11.66210938 C5.67634766 12.49548828 5.62027344 13.32886719 5.5625 14.1875 C5.51029297 15.03248047 5.45808594 15.87746094 5.40429688 16.74804688 C5.27476311 18.83236299 5.13806823 20.91623182 5 23 C4.67 23 4.34 23 4 23 C4 16.4 4 9.8 4 3 C1.525 4.485 1.525 4.485 -1 6 C-1.66 5.67 -2.32 5.34 -3 5 C-2.01 3.35 -1.02 1.7 0 0 Z " fill="#C3DBD8" transform="translate(196,62)"/>
<path d="M0 0 C0.99 0.33 1.98 0.66 3 1 C3 1.66 3 2.32 3 3 C3.99 3.33 4.98 3.66 6 4 C5.34 5.65 4.68 7.3 4 9 C3.34 9 2.68 9 2 9 C1.67 11.97 1.34 14.94 1 18 C0.67 18 0.34 18 0 18 C0 12.06 0 6.12 0 0 Z " fill="#5FA096" transform="translate(149,69)"/>
<path d="M0 0 C2.31 0.66 4.62 1.32 7 2 C7 2.66 7 3.32 7 4 C7.99 4 8.98 4 10 4 C10 4.99 10 5.98 10 7 C9.360625 6.690625 8.72125 6.38125 8.0625 6.0625 C4.07950896 4.68064597 0.18349151 4.3463457 -4 4 C-3.67 3.34 -3.34 2.68 -3 2 C-2.01 2.33 -1.02 2.66 0 3 C0 2.01 0 1.02 0 0 Z " fill="#D2D8B5" transform="translate(66,48)"/>
<path d="M0 0 C2.31 0.33 4.62 0.66 7 1 C6.67 2.32 6.34 3.64 6 5 C4.68 5.33 3.36 5.66 2 6 C2 5.34 2 4.68 2 4 C1.01 3.67 0.02 3.34 -1 3 C-0.67 2.01 -0.34 1.02 0 0 Z " fill="#F4F8F5" transform="translate(46,62)"/>
<path d="M0 0 C2.33944736 0.28730055 4.6739143 0.61936779 7 1 C6.67 1.66 6.34 2.32 6 3 C4.68 3 3.36 3 2 3 C2 3.99 2 4.98 2 6 C3.32 6.66 4.64 7.32 6 8 C2.28400809 8.20086443 1.22791555 8.1519437 -2 6 C-1.125 1.125 -1.125 1.125 0 0 Z " fill="#398A7E" transform="translate(217,58)"/>
<path d="M0 0 C-0.625 2.4375 -0.625 2.4375 -2 5 C-5.125 5.8125 -5.125 5.8125 -8 6 C-8 4.35 -8 2.7 -8 1 C-5.23735711 0.40267181 -2.83967231 0 0 0 Z " fill="#277F72" transform="translate(171,50)"/>
<path d="M0 0 C1.0169313 2.65498232 1.13022151 3.69155375 0.00390625 6.359375 C-0.47175781 7.14828125 -0.94742188 7.9371875 -1.4375 8.75 C-1.91058594 9.54921875 -2.38367188 10.3484375 -2.87109375 11.171875 C-3.24363281 11.77515625 -3.61617188 12.3784375 -4 13 C-4.33 12.34 -4.66 11.68 -5 11 C-5.99 11 -6.98 11 -8 11 C-8 10.34 -8 9.68 -8 9 C-7.38640625 8.91878906 -6.7728125 8.83757813 -6.140625 8.75390625 C-3.86169372 8.18806644 -3.86169372 8.18806644 -2.734375 6.15234375 C-2.24710937 5.05599609 -2.24710937 5.05599609 -1.75 3.9375 C-1.41484375 3.20402344 -1.0796875 2.47054687 -0.734375 1.71484375 C-0.49203125 1.14894531 -0.2496875 0.58304688 0 0 Z " fill="#F4FAF9" transform="translate(76,38)"/>
<path d="M0 0 C0.33 0.99 0.66 1.98 1 3 C1.69867188 3.04898438 2.39734375 3.09796875 3.1171875 3.1484375 C4.02726562 3.22320312 4.93734375 3.29796875 5.875 3.375 C6.77992187 3.44460937 7.68484375 3.51421875 8.6171875 3.5859375 C11 4 11 4 13 6 C11.02090602 6.02686553 9.04171029 6.04633375 7.0625 6.0625 C5.96035156 6.07410156 4.85820313 6.08570312 3.72265625 6.09765625 C1 6 1 6 0 5 C-0.04063832 3.33382885 -0.042721 1.66611905 0 0 Z " fill="#B3D4D5" transform="translate(31,71)"/>
<path d="M0 0 C0.66 0.99 1.32 1.98 2 3 C2.99 3 3.98 3 5 3 C2.7448078 5.2551922 0.9952413 5.97723468 -2 7 C-2.99 7 -3.98 7 -5 7 C-5 5.33333333 -5 3.66666667 -5 2 C-4.360625 1.855625 -3.72125 1.71125 -3.0625 1.5625 C-1.02454854 1.18992819 -1.02454854 1.18992819 0 0 Z " fill="#D6EBEC" transform="translate(87,46)"/>
<path d="M0 0 C5.94 0.99 5.94 0.99 12 2 C12.33 1.34 12.66 0.68 13 0 C12.67 1.32 12.34 2.64 12 4 C8.17490842 5.47118907 5.71687005 4.45442741 2 3 C1.34 2.67 0.68 2.34 0 2 C0 1.34 0 0.68 0 0 Z " fill="#BBD7DB" transform="translate(87,78)"/>
<path d="M0 0 C1.65 0 3.3 0 5 0 C3.68 0.33 2.36 0.66 1 1 C1 2.98 1 4.96 1 7 C-0.32 7 -1.64 7 -3 7 C-2.67 7.99 -2.34 8.98 -2 10 C-1.01 10.33 -0.02 10.66 1 11 C1 11.66 1 12.32 1 13 C-0.65 13 -2.3 13 -4 13 C-4 10.69 -4 8.38 -4 6 C-2.68 6 -1.36 6 0 6 C0 4.02 0 2.04 0 0 Z " fill="#64A49A" transform="translate(223,42)"/>
<path d="M0 0 C1.32 0 2.64 0 4 0 C4 1.98 4 3.96 4 6 C2.68 6.33 1.36 6.66 0 7 C0 4.69 0 2.38 0 0 Z " fill="#4C958A" transform="translate(267,54)"/>
<path d="M0 0 C-0.52268466 2.76276177 -1.10869587 5.3260876 -2 8 C-2.99 7.67 -3.98 7.34 -5 7 C-5 5.02 -5 3.04 -5 1 C-3 0 -3 0 0 0 Z " fill="#489388" transform="translate(281,51)"/>
<path d="M0 0 C1.65 0 3.3 0 5 0 C5.33 1.32 5.66 2.64 6 4 C3.69 4 1.38 4 -1 4 C-0.67 2.68 -0.34 1.36 0 0 Z " fill="#E2EFF0" transform="translate(29,50)"/>
<path d="M0 0 C0.33 0 0.66 0 1 0 C1.13277344 0.63808594 1.26554687 1.27617188 1.40234375 1.93359375 C1.57894531 2.75988281 1.75554688 3.58617187 1.9375 4.4375 C2.19853516 5.67306641 2.19853516 5.67306641 2.46484375 6.93359375 C2.80752994 8.97661204 2.80752994 8.97661204 4 10 C4.04063832 11.66617115 4.042721 13.33388095 4 15 C1.40561249 13.70280625 1.04413882 12.67964831 0 10 C-0.1953125 7.421875 -0.1953125 7.421875 -0.125 4.75 C-0.09792969 3.41195312 -0.09792969 3.41195312 -0.0703125 2.046875 C-0.04710937 1.37140625 -0.02390625 0.6959375 0 0 Z " fill="#EDA42F" transform="translate(54,59)"/>
<path d="M0 0 C2.97 0.33 5.94 0.66 9 1 C8.01 1.33 7.02 1.66 6 2 C6.33 4.97 6.66 7.94 7 11 C6.01 11.495 6.01 11.495 5 12 C4.67 8.37 4.34 4.74 4 1 C2.68 0.67 1.36 0.34 0 0 Z " fill="#B0D0CB" transform="translate(157,45)"/>
<path d="M0 0 C2.6875 0.875 2.6875 0.875 5 2 C4.67 2.99 4.34 3.98 4 5 C-0.75 4.25 -0.75 4.25 -3 2 C-2.01 1.34 -1.02 0.68 0 0 Z " fill="#CAE2E9" transform="translate(88,88)"/>
<path d="M0 0 C1.32 0.33 2.64 0.66 4 1 C4.33 2.65 4.66 4.3 5 6 C2.36 5.34 -0.28 4.68 -3 4 C-2.01 2.68 -1.02 1.36 0 0 Z " fill="#D0A755" transform="translate(71,73)"/>
<path d="M0 0 C0.33 0 0.66 0 1 0 C1.625 2.8125 1.625 2.8125 2 6 C1.01 7.485 1.01 7.485 0 9 C0.33 9.66 0.66 10.32 1 11 C-0.65 10.67 -2.3 10.34 -4 10 C-3.525625 9.278125 -3.05125 8.55625 -2.5625 7.8125 C-1.05847097 5.10524774 -0.43400818 3.03805725 0 0 Z " fill="#C9D3B6" transform="translate(80,63)"/>
<path d="M0 0 C0.33 1.32 0.66 2.64 1 4 C-0.98 4.99 -0.98 4.99 -3 6 C-3 5.34 -3 4.68 -3 4 C-3.99 4.33 -4.98 4.66 -6 5 C-6 4.34 -6 3.68 -6 3 C-4.02 2.01 -2.04 1.02 0 0 Z " fill="#D0E8EE" transform="translate(103,47)"/>
<path d="M0 0 C0.33 0.66 0.66 1.32 1 2 C0.34 1.67 -0.32 1.34 -1 1 C-0.67 0.67 -0.34 0.34 0 0 Z M-2 2 C-1.67 2.99 -1.34 3.98 -1 5 C-0.34 5.33 0.32 5.66 1 6 C-2 8 -2 8 -4.1875 7.625 C-4.785625 7.41875 -5.38375 7.2125 -6 7 C-6 6.34 -6 5.68 -6 5 C-4 3.375 -4 3.375 -2 2 Z " fill="#E9F8FB" transform="translate(83,46)"/>
<path d="M0 0 C0.66 1.32 1.32 2.64 2 4 C0.625 6 0.625 6 -1 8 C-1.66 8 -2.32 8 -3 8 C-2.45276317 4.62537285 -1.9451 2.91765 0 0 Z " fill="#B2D1CD" transform="translate(139,60)"/>
<path d="M0 0 C2.05078125 0.03255208 4.1015625 0.06510417 6.15234375 0.09765625 C4.89692818 2.60848739 3.65170887 2.96891071 1.15234375 4.09765625 C1.15234375 3.43765625 1.15234375 2.77765625 1.15234375 2.09765625 C-0.16765625 1.76765625 -1.48765625 1.43765625 -2.84765625 1.09765625 C-1.84765625 0.09765625 -1.84765625 0.09765625 0 0 Z " fill="#ECFAFC" transform="translate(41.84765625,70.90234375)"/>
<path d="M0 0 C0.33 0.99 0.66 1.98 1 3 C2.32 3 3.64 3 5 3 C5 3.66 5 4.32 5 5 C5.99 5 6.98 5 8 5 C7.67 5.66 7.34 6.32 7 7 C5.02 6.34 3.04 5.68 1 5 C0.67 3.35 0.34 1.7 0 0 Z " fill="#BBD2D7" transform="translate(27,63)"/>
<path d="M0 0 C0.99 0.33 1.98 0.66 3 1 C3.6875 3.0625 3.6875 3.0625 4 5 C2.68 5.33 1.36 5.66 0 6 C0 5.34 0 4.68 0 4 C-0.66 3.67 -1.32 3.34 -2 3 C-2 2.34 -2 1.68 -2 1 C-1.34 0.67 -0.68 0.34 0 0 Z " fill="#6BA89F" transform="translate(388,59)"/>
<path d="M0 0 C2.31 0.33 4.62 0.66 7 1 C6.67 1.99 6.34 2.98 6 4 C3.83125748 3.49396008 2.00032373 3.00016187 0 2 C0 1.34 0 0.68 0 0 Z " fill="#C7DEE8" transform="translate(28,54)"/>
<path d="M0 0 C2.125 0.9375 2.125 0.9375 4 2 C3.01 2.99 2.02 3.98 1 5 C0.01 4.67 -0.98 4.34 -2 4 C-2 3.01 -2 2.02 -2 1 C-1.34 0.67 -0.68 0.34 0 0 Z " fill="#D6E5DC" transform="translate(78,52)"/>
<path d="M0 0 C0.66 0.33 1.32 0.66 2 1 C1.67 3.31 1.34 5.62 1 8 C0.67 7.34 0.34 6.68 0 6 C-0.66 6 -1.32 6 -2 6 C-1.34 4.02 -0.68 2.04 0 0 Z " fill="#C5E0EF" transform="translate(92,34)"/>
<path d="M0 0 C2.92879371 0.62759865 5.36095629 1.58622659 8 3 C6.68 3 5.36 3 4 3 C4 3.66 4 4.32 4 5 C3.01 4.67 2.02 4.34 1 4 C0.3125 1.9375 0.3125 1.9375 0 0 Z " fill="#DCE1CA" transform="translate(58,76)"/>
<path d="M0 0 C0 1.65 0 3.3 0 5 C-0.99 5 -1.98 5 -3 5 C-3.33 5.66 -3.66 6.32 -4 7 C-4.1875 4.625 -4.1875 4.625 -4 2 C-1 0 -1 0 0 0 Z " fill="#308578" transform="translate(163,76)"/>
<path d="M0 0 C1.98 0.99 1.98 0.99 4 2 C4 2.99 4 3.98 4 5 C4.66 5.33 5.32 5.66 6 6 C5.01 6.33 4.02 6.66 3 7 C3 6.34 3 5.68 3 5 C2.01 5 1.02 5 0 5 C0 3.35 0 1.7 0 0 Z " fill="#A6CAC5" transform="translate(398,51)"/>
<path d="M0 0 C1.65 1.65 3.3 3.3 5 5 C4.01 5.99 3.02 6.98 2 8 C0.74335022 5.09399739 0 3.20395416 0 0 Z " fill="#589C92" transform="translate(80,85)"/>
<path d="M0 0 C0.33 0.99 0.66 1.98 1 3 C-0.32 3.99 -1.64 4.98 -3 6 C-3.33 4.35 -3.66 2.7 -4 1 C-2.68 0.67 -1.36 0.34 0 0 Z " fill="#B4D4DC" transform="translate(105,60)"/>
</svg>
